<svg version="1.1" viewBox="0.0 0.0 960.0 720.0" fill="none" stroke="none" stroke-linecap="square" stroke-miterlimit="10" xmlns:xlink="http://www.w3.org/1999/xlink" xmlns="http://www.w3.org/2000/svg"><clipPath id="p.0"><path d="m0 0l960.0 0l0 720.0l-960.0 0l0 -720.0z" clip-rule="nonzero"/></clipPath><g clip-path="url(#p.0)"><path fill="#000000" fill-opacity="0.0" d="m0 0l960.0 0l0 720.0l-960.0 0z" fill-rule="evenodd"/><path fill="#000000" fill-opacity="0.0" d="m157.95276 83.23622l28.094482 0l0 28.09449l-28.094482 0z" fill-rule="evenodd"/><path stroke="#000000" stroke-width="1.0" stroke-linejoin="round" stroke-linecap="butt" d="m157.95276 83.23622l28.094482 0l0 28.09449l-28.094482 0z" fill-rule="evenodd"/><path fill="#000000" fill-opacity="0.0" d="m189.95276 83.23622l28.094482 0l0 28.09449l-28.094482 0z" fill-rule="evenodd"/><path stroke="#000000" stroke-width="1.0" stroke-linejoin="round" stroke-linecap="butt" d="m189.95276 83.23622l28.094482 0l0 28.09449l-28.094482 0z" fill-rule="evenodd"/><path fill="#000000" fill-opacity="0.0" d="m221.95276 83.23622l28.094482 0l0 28.09449l-28.094482 0z" fill-rule="evenodd"/><path stroke="#000000" stroke-width="1.0" stroke-linejoin="round" stroke-linecap="butt" d="m221.95276 83.23622l28.094482 0l0 28.09449l-28.094482 0z" fill-rule="evenodd"/><path fill="#000000" fill-opacity="0.0" d="m253.95276 83.23622l28.094482 0l0 28.09449l-28.094482 0z" fill-rule="evenodd"/><path stroke="#000000" stroke-width="1.0" stroke-linejoin="round" stroke-linecap="butt" d="m253.95276 83.23622l28.094482 0l0 28.09449l-28.094482 0z" fill-rule="evenodd"/><path fill="#000000" d="m268.00003 103.35284q-2.21875 0 -3.71875 -1.484375q-1.484375 -1.5 -1.484375 -3.71875q0 -2.21875 1.46875 -3.6875q1.46875 -1.46875 3.734375 -1.46875q2.265625 0 3.734375 1.46875q1.46875 1.46875 1.46875 3.734375q0 2.21875 -1.46875 3.6875q-1.46875 1.46875 -3.734375 1.46875z" fill-rule="nonzero"/><path fill="#000000" fill-opacity="0.0" d="m285.95276 83.23622l28.094482 0l0 28.09449l-28.094482 0z" fill-rule="evenodd"/><path stroke="#000000" stroke-width="1.0" stroke-linejoin="round" stroke-linecap="butt" d="m285.95276 83.23622l28.094482 0l0 28.09449l-28.094482 0z" fill-rule="evenodd"/><path fill="#000000" fill-opacity="0.0" d="m317.95276 83.23622l28.094482 0l0 28.09449l-28.094482 0z" fill-rule="evenodd"/><path stroke="#000000" stroke-width="1.0" stroke-linejoin="round" stroke-linecap="butt" d="m317.95276 83.23622l28.094482 0l0 28.09449l-28.094482 0z" fill-rule="evenodd"/><path fill="#000000" fill-opacity="0.0" d="m349.95276 83.23622l28.094482 0l0 28.09449l-28.094482 0z" fill-rule="evenodd"/><path stroke="#000000" stroke-width="1.0" stroke-linejoin="round" stroke-linecap="butt" d="m349.95276 83.23622l28.094482 0l0 28.09449l-28.094482 0z" fill-rule="evenodd"/><path fill="#000000" fill-opacity="0.0" d="m381.95276 83.23622l28.094482 0l0 28.09449l-28.094482 0z" fill-rule="evenodd"/><path stroke="#000000" stroke-width="1.0" stroke-linejoin="round" stroke-linecap="butt" d="m381.95276 83.23622l28.094482 0l0 28.09449l-28.094482 0z" fill-rule="evenodd"/><path fill="#000000" fill-opacity="0.0" d="m413.95276 83.23622l28.094482 0l0 28.09449l-28.094482 0z" fill-rule="evenodd"/><path stroke="#000000" stroke-width="1.0" stroke-linejoin="round" stroke-linecap="butt" d="m413.95276 83.23622l28.094482 0l0 28.09449l-28.094482 0z" fill-rule="evenodd"/><path fill="#000000" fill-opacity="0.0" d="m445.95276 83.23622l28.094482 0l0 28.09449l-28.094482 0z" fill-rule="evenodd"/><path stroke="#000000" stroke-width="1.0" stroke-linejoin="round" stroke-linecap="butt" d="m445.95276 83.23622l28.094482 0l0 28.09449l-28.094482 0z" fill-rule="evenodd"/><path fill="#000000" fill-opacity="0.0" d="m157.95276 123.23622l28.094482 0l0 28.094482l-28.094482 0z" fill-rule="evenodd"/><path stroke="#000000" stroke-width="1.0" stroke-linejoin="round" stroke-linecap="butt" d="m157.95276 123.23622l28.094482 0l0 28.094482l-28.094482 0z" fill-rule="evenodd"/><path fill="#000000" fill-opacity="0.0" d="m189.95276 123.23622l28.094482 0l0 28.094482l-28.094482 0z" fill-rule="evenodd"/><path stroke="#000000" stroke-width="1.0" stroke-linejoin="round" stroke-linecap="butt" d="m189.95276 123.23622l28.094482 0l0 28.094482l-28.094482 0z" fill-rule="evenodd"/><path fill="#d9ead3" d="m221.95276 123.23622l28.094482 0l0 28.094482l-28.094482 0z" fill-rule="evenodd"/><path stroke="#000000" stroke-width="1.0" stroke-linejoin="round" stroke-linecap="butt" d="m221.95276 123.23622l28.094482 0l0 28.094482l-28.094482 0z" fill-rule="evenodd"/><path fill="#000000" d="m236.00002 143.35284q-2.21875 0 -3.71875 -1.484375q-1.484375 -1.5 -1.484375 -3.71875q0 -2.21875 1.46875 -3.6875q1.46875 -1.46875 3.734375 -1.46875q2.2656403 0 3.7343903 1.46875q1.46875 1.46875 1.46875 3.734375q0 2.21875 -1.46875 3.6875q-1.46875 1.46875 -3.7343903 1.46875z" fill-rule="nonzero"/><path fill="#000000" fill-opacity="0.0" d="m253.95276 123.23622l28.094482 0l0 28.094482l-28.094482 0z" fill-rule="evenodd"/><path stroke="#000000" stroke-width="1.0" stroke-linejoin="round" stroke-linecap="butt" d="m253.95276 123.23622l28.094482 0l0 28.094482l-28.094482 0z" fill-rule="evenodd"/><path fill="#000000" fill-opacity="0.0" d="m285.95276 123.23622l28.094482 0l0 28.094482l-28.094482 0z" fill-rule="evenodd"/><path stroke="#000000" stroke-width="1.0" stroke-linejoin="round" stroke-linecap="butt" d="m285.95276 123.23622l28.094482 0l0 28.094482l-28.094482 0z" fill-rule="evenodd"/><path fill="#000000" fill-opacity="0.0" d="m317.95276 123.23622l28.094482 0l0 28.094482l-28.094482 0z" fill-rule="evenodd"/><path stroke="#000000" stroke-width="1.0" stroke-linejoin="round" stroke-linecap="butt" d="m317.95276 123.23622l28.094482 0l0 28.094482l-28.094482 0z" fill-rule="evenodd"/><path fill="#000000" fill-opacity="0.0" d="m349.95276 123.23622l28.094482 0l0 28.094482l-28.094482 0z" fill-rule="evenodd"/><path stroke="#000000" stroke-width="1.0" stroke-linejoin="round" stroke-linecap="butt" d="m349.95276 123.23622l28.094482 0l0 28.094482l-28.094482 0z" fill-rule="evenodd"/><path fill="#000000" fill-opacity="0.0" d="m381.95276 123.23622l28.094482 0l0 28.094482l-28.094482 0z" fill-rule="evenodd"/><path stroke="#000000" stroke-width="1.0" stroke-linejoin="round" stroke-linecap="butt" d="m381.95276 123.23622l28.094482 0l0 28.094482l-28.094482 0z" fill-rule="evenodd"/><path fill="#000000" fill-opacity="0.0" d="m413.95276 123.23622l28.094482 0l0 28.094482l-28.094482 0z" fill-rule="evenodd"/><path stroke="#000000" stroke-width="1.0" stroke-linejoin="round" stroke-linecap="butt" d="m413.95276 123.23622l28.094482 0l0 28.094482l-28.094482 0z" fill-rule="evenodd"/><path fill="#000000" fill-opacity="0.0" d="m445.95276 123.23622l28.094482 0l0 28.094482l-28.094482 0z" fill-rule="evenodd"/><path stroke="#000000" stroke-width="1.0" stroke-linejoin="round" stroke-linecap="butt" d="m445.95276 123.23622l28.094482 0l0 28.094482l-28.094482 0z" fill-rule="evenodd"/><path fill="#000000" fill-opacity="0.0" d="m485.95276 83.23622l28.094482 0l0 28.09449l-28.094482 0z" fill-rule="evenodd"/><path stroke="#000000" stroke-width="1.0" stroke-linejoin="round" stroke-linecap="butt" d="m485.95276 83.23622l28.094482 0l0 28.09449l-28.094482 0z" fill-rule="evenodd"/><path fill="#000000" fill-opacity="0.0" d="m517.95276 83.23622l28.094482 0l0 28.09449l-28.094482 0z" fill-rule="evenodd"/><path stroke="#000000" stroke-width="1.0" stroke-linejoin="round" stroke-linecap="butt" d="m517.95276 83.23622l28.094482 0l0 28.09449l-28.094482 0z" fill-rule="evenodd"/><path fill="#000000" d="m532.0 103.35284q-2.21875 0 -3.71875 -1.484375q-1.484375 -1.5 -1.484375 -3.71875q0 -2.21875 1.46875 -3.6875q1.46875 -1.46875 3.734375 -1.46875q2.265625 0 3.734375 1.46875q1.46875 1.46875 1.46875 3.734375q0 2.21875 -1.46875 3.6875q-1.46875 1.46875 -3.734375 1.46875z" fill-rule="nonzero"/><path fill="#000000" fill-opacity="0.0" d="m549.95276 83.23622l28.094482 0l0 28.09449l-28.094482 0z" fill-rule="evenodd"/><path stroke="#000000" stroke-width="1.0" stroke-linejoin="round" stroke-linecap="butt" d="m549.95276 83.23622l28.094482 0l0 28.09449l-28.094482 0z" fill-rule="evenodd"/><path fill="#000000" fill-opacity="0.0" d="m581.95276 83.23622l28.094482 0l0 28.09449l-28.094482 0z" fill-rule="evenodd"/><path stroke="#000000" stroke-width="1.0" stroke-linejoin="round" stroke-linecap="butt" d="m581.95276 83.23622l28.094482 0l0 28.09449l-28.094482 0z" fill-rule="evenodd"/><path fill="#d9ead3" d="m613.95276 83.23622l28.094482 0l0 28.09449l-28.094482 0z" fill-rule="evenodd"/><path stroke="#000000" stroke-width="1.0" stroke-linejoin="round" stroke-linecap="butt" d="m613.95276 83.23622l28.094482 0l0 28.09449l-28.094482 0z" fill-rule="evenodd"/><path fill="#000000" d="m628.0 103.35284q-2.21875 0 -3.71875 -1.484375q-1.484375 -1.5 -1.484375 -3.71875q0 -2.21875 1.46875 -3.6875q1.46875 -1.46875 3.734375 -1.46875q2.265625 0 3.734375 1.46875q1.46875 1.46875 1.46875 3.734375q0 2.21875 -1.46875 3.6875q-1.46875 1.46875 -3.734375 1.46875z" fill-rule="nonzero"/><path fill="#000000" fill-opacity="0.0" d="m645.95276 83.23622l28.094482 0l0 28.09449l-28.094482 0z" fill-rule="evenodd"/><path stroke="#000000" stroke-width="1.0" stroke-linejoin="round" stroke-linecap="butt" d="m645.95276 83.23622l28.094482 0l0 28.09449l-28.094482 0z" fill-rule="evenodd"/><path fill="#000000" fill-opacity="0.0" d="m677.95276 83.23622l28.094482 0l0 28.09449l-28.094482 0z" fill-rule="evenodd"/><path stroke="#000000" stroke-width="1.0" stroke-linejoin="round" stroke-linecap="butt" d="m677.95276 83.23622l28.094482 0l0 28.09449l-28.094482 0z" fill-rule="evenodd"/><path fill="#000000" fill-opacity="0.0" d="m709.95276 83.23622l28.094482 0l0 28.09449l-28.094482 0z" fill-rule="evenodd"/><path stroke="#000000" stroke-width="1.0" stroke-linejoin="round" stroke-linecap="butt" d="m709.95276 83.23622l28.094482 0l0 28.09449l-28.094482 0z" fill-rule="evenodd"/><path fill="#000000" fill-opacity="0.0" d="m741.95276 83.23622l28.094482 0l0 28.09449l-28.094482 0z" fill-rule="evenodd"/><path stroke="#000000" stroke-width="1.0" stroke-linejoin="round" stroke-linecap="butt" d="m741.95276 83.23622l28.094482 0l0 28.09449l-28.094482 0z" fill-rule="evenodd"/><path fill="#000000" fill-opacity="0.0" d="m773.95276 83.23622l28.094482 0l0 28.09449l-28.094482 0z" fill-rule="evenodd"/><path stroke="#000000" stroke-width="1.0" stroke-linejoin="round" stroke-linecap="butt" d="m773.95276 83.23622l28.094482 0l0 28.09449l-28.094482 0z" fill-rule="evenodd"/><path fill="#000000" fill-opacity="0.0" d="m485.95276 123.23622l28.094482 0l0 28.094482l-28.094482 0z" fill-rule="evenodd"/><path stroke="#000000" stroke-width="1.0" stroke-linejoin="round" stroke-linecap="butt" d="m485.95276 123.23622l28.094482 0l0 28.094482l-28.094482 0z" fill-rule="evenodd"/><path fill="#000000" fill-opacity="0.0" d="m517.95276 123.23622l28.094482 0l0 28.094482l-28.094482 0z" fill-rule="evenodd"/><path stroke="#000000" stroke-width="1.0" stroke-linejoin="round" stroke-linecap="butt" d="m517.95276 123.23622l28.094482 0l0 28.094482l-28.094482 0z" fill-rule="evenodd"/><path fill="#000000" fill-opacity="0.0" d="m549.95276 123.23622l28.094482 0l0 28.094482l-28.094482 0z" fill-rule="evenodd"/><path stroke="#000000" stroke-width="1.0" stroke-linejoin="round" stroke-linecap="butt" d="m549.95276 123.23622l28.094482 0l0 28.094482l-28.094482 0z" fill-rule="evenodd"/><path fill="#000000" fill-opacity="0.0" d="m581.95276 123.23622l28.094482 0l0 28.094482l-28.094482 0z" fill-rule="evenodd"/><path stroke="#000000" stroke-width="1.0" stroke-linejoin="round" stroke-linecap="butt" d="m581.95276 123.23622l28.094482 0l0 28.094482l-28.094482 0z" fill-rule="evenodd"/><path fill="#000000" fill-opacity="0.0" d="m613.95276 123.23622l28.094482 0l0 28.094482l-28.094482 0z" fill-rule="evenodd"/><path stroke="#000000" stroke-width="1.0" stroke-linejoin="round" stroke-linecap="butt" d="m613.95276 123.23622l28.094482 0l0 28.094482l-28.094482 0z" fill-rule="evenodd"/><path fill="#000000" fill-opacity="0.0" d="m645.95276 123.23622l28.094482 0l0 28.094482l-28.094482 0z" fill-rule="evenodd"/><path stroke="#000000" stroke-width="1.0" stroke-linejoin="round" stroke-linecap="butt" d="m645.95276 123.23622l28.094482 0l0 28.094482l-28.094482 0z" fill-rule="evenodd"/><path fill="#000000" fill-opacity="0.0" d="m677.95276 123.23622l28.094482 0l0 28.094482l-28.094482 0z" fill-rule="evenodd"/><path stroke="#000000" stroke-width="1.0" stroke-linejoin="round" stroke-linecap="butt" d="m677.95276 123.23622l28.094482 0l0 28.094482l-28.094482 0z" fill-rule="evenodd"/><path fill="#000000" fill-opacity="0.0" d="m709.95276 123.23622l28.094482 0l0 28.094482l-28.094482 0z" fill-rule="evenodd"/><path stroke="#000000" stroke-width="1.0" stroke-linejoin="round" stroke-linecap="butt" d="m709.95276 123.23622l28.094482 0l0 28.094482l-28.094482 0z" fill-rule="evenodd"/><path fill="#000000" fill-opacity="0.0" d="m741.95276 123.23622l28.094482 0l0 28.094482l-28.094482 0z" fill-rule="evenodd"/><path stroke="#000000" stroke-width="1.0" stroke-linejoin="round" stroke-linecap="butt" d="m741.95276 123.23622l28.094482 0l0 28.094482l-28.094482 0z" fill-rule="evenodd"/><path fill="#000000" fill-opacity="0.0" d="m773.95276 123.23622l28.094482 0l0 28.094482l-28.094482 0z" fill-rule="evenodd"/><path stroke="#000000" stroke-width="1.0" stroke-linejoin="round" stroke-linecap="butt" d="m773.95276 123.23622l28.094482 0l0 28.094482l-28.094482 0z" fill-rule="evenodd"/><path fill="#000000" fill-opacity="0.0" d="m157.95276 163.23622l28.094482 0l0 28.094482l-28.094482 0z" fill-rule="evenodd"/><path stroke="#000000" stroke-width="1.0" stroke-linejoin="round" stroke-linecap="butt" d="m157.95276 163.23622l28.094482 0l0 28.094482l-28.094482 0z" fill-rule="evenodd"/><path fill="#000000" fill-opacity="0.0" d="m189.95276 163.23622l28.094482 0l0 28.094482l-28.094482 0z" fill-rule="evenodd"/><path stroke="#000000" stroke-width="1.0" stroke-linejoin="round" stroke-linecap="butt" d="m189.95276 163.23622l28.094482 0l0 28.094482l-28.094482 0z" fill-rule="evenodd"/><path fill="#000000" fill-opacity="0.0" d="m221.95276 163.23622l28.094482 0l0 28.094482l-28.094482 0z" fill-rule="evenodd"/><path stroke="#000000" stroke-width="1.0" stroke-linejoin="round" stroke-linecap="butt" d="m221.95276 163.23622l28.094482 0l0 28.094482l-28.094482 0z" fill-rule="evenodd"/><path fill="#000000" fill-opacity="0.0" d="m253.95276 163.23622l28.094482 0l0 28.094482l-28.094482 0z" fill-rule="evenodd"/><path stroke="#000000" stroke-width="1.0" stroke-linejoin="round" stroke-linecap="butt" d="m253.95276 163.23622l28.094482 0l0 28.094482l-28.094482 0z" fill-rule="evenodd"/><path fill="#000000" fill-opacity="0.0" d="m285.95276 163.23622l28.094482 0l0 28.094482l-28.094482 0z" fill-rule="evenodd"/><path stroke="#000000" stroke-width="1.0" stroke-linejoin="round" stroke-linecap="butt" d="m285.95276 163.23622l28.094482 0l0 28.094482l-28.094482 0z" fill-rule="evenodd"/><path fill="#000000" fill-opacity="0.0" d="m317.95276 163.23622l28.094482 0l0 28.094482l-28.094482 0z" fill-rule="evenodd"/><path stroke="#000000" stroke-width="1.0" stroke-linejoin="round" stroke-linecap="butt" d="m317.95276 163.23622l28.094482 0l0 28.094482l-28.094482 0z" fill-rule="evenodd"/><path fill="#000000" fill-opacity="0.0" d="m349.95276 163.23622l28.094482 0l0 28.094482l-28.094482 0z" fill-rule="evenodd"/><path stroke="#000000" stroke-width="1.0" stroke-linejoin="round" stroke-linecap="butt" d="m349.95276 163.23622l28.094482 0l0 28.094482l-28.094482 0z" fill-rule="evenodd"/><path fill="#000000" fill-opacity="0.0" d="m381.95276 163.23622l28.094482 0l0 28.094482l-28.094482 0z" fill-rule="evenodd"/><path stroke="#000000" stroke-width="1.0" stroke-linejoin="round" stroke-linecap="butt" d="m381.95276 163.23622l28.094482 0l0 28.094482l-28.094482 0z" fill-rule="evenodd"/><path fill="#000000" fill-opacity="0.0" d="m413.95276 163.23622l28.094482 0l0 28.094482l-28.094482 0z" fill-rule="evenodd"/><path stroke="#000000" stroke-width="1.0" stroke-linejoin="round" stroke-linecap="butt" d="m413.95276 163.23622l28.094482 0l0 28.094482l-28.094482 0z" fill-rule="evenodd"/><path fill="#d9ead3" d="m445.95276 163.23622l28.094482 0l0 28.094482l-28.094482 0z" fill-rule="evenodd"/><path stroke="#000000" stroke-width="1.0" stroke-linejoin="round" stroke-linecap="butt" d="m445.95276 163.23622l28.094482 0l0 28.094482l-28.094482 0z" fill-rule="evenodd"/><path fill="#000000" d="m460.00003 183.35284q-2.21875 0 -3.71875 -1.484375q-1.484375 -1.5 -1.484375 -3.71875q0 -2.21875 1.46875 -3.6875q1.46875 -1.46875 3.734375 -1.46875q2.265625 0 3.734375 1.46875q1.46875 1.46875 1.46875 3.734375q0 2.21875 -1.46875 3.6875q-1.46875 1.46875 -3.734375 1.46875z" fill-rule="nonzero"/><path fill="#000000" fill-opacity="0.0" d="m157.95276 203.23622l28.094482 0l0 28.094482l-28.094482 0z" fill-rule="evenodd"/><path stroke="#000000" stroke-width="1.0" stroke-linejoin="round" stroke-linecap="butt" d="m157.95276 203.23622l28.094482 0l0 28.094482l-28.094482 0z" fill-rule="evenodd"/><path fill="#000000" fill-opacity="0.0" d="m189.95276 203.23622l28.094482 0l0 28.094482l-28.094482 0z" fill-rule="evenodd"/><path stroke="#000000" stroke-width="1.0" stroke-linejoin="round" stroke-linecap="butt" d="m189.95276 203.23622l28.094482 0l0 28.094482l-28.094482 0z" fill-rule="evenodd"/><path fill="#000000" fill-opacity="0.0" d="m221.95276 203.23622l28.094482 0l0 28.094482l-28.094482 0z" fill-rule="evenodd"/><path stroke="#000000" stroke-width="1.0" stroke-linejoin="round" stroke-linecap="butt" d="m221.95276 203.23622l28.094482 0l0 28.094482l-28.094482 0z" fill-rule="evenodd"/><path fill="#000000" fill-opacity="0.0" d="m253.95276 203.23622l28.094482 0l0 28.094482l-28.094482 0z" fill-rule="evenodd"/><path stroke="#000000" stroke-width="1.0" stroke-linejoin="round" stroke-linecap="butt" d="m253.95276 203.23622l28.094482 0l0 28.094482l-28.094482 0z" fill-rule="evenodd"/><path fill="#000000" fill-opacity="0.0" d="m285.95276 203.23622l28.094482 0l0 28.094482l-28.094482 0z" fill-rule="evenodd"/><path stroke="#000000" stroke-width="1.0" stroke-linejoin="round" stroke-linecap="butt" d="m285.95276 203.23622l28.094482 0l0 28.094482l-28.094482 0z" fill-rule="evenodd"/><path fill="#000000" fill-opacity="0.0" d="m317.95276 203.23622l28.094482 0l0 28.094482l-28.094482 0z" fill-rule="evenodd"/><path stroke="#000000" stroke-width="1.0" stroke-linejoin="round" stroke-linecap="butt" d="m317.95276 203.23622l28.094482 0l0 28.094482l-28.094482 0z" fill-rule="evenodd"/><path fill="#000000" fill-opacity="0.0" d="m349.95276 203.23622l28.094482 0l0 28.094482l-28.094482 0z" fill-rule="evenodd"/><path stroke="#000000" stroke-width="1.0" stroke-linejoin="round" stroke-linecap="butt" d="m349.95276 203.23622l28.094482 0l0 28.094482l-28.094482 0z" fill-rule="evenodd"/><path fill="#000000" fill-opacity="0.0" d="m381.95276 203.23622l28.094482 0l0 28.094482l-28.094482 0z" fill-rule="evenodd"/><path stroke="#000000" stroke-width="1.0" stroke-linejoin="round" stroke-linecap="butt" d="m381.95276 203.23622l28.094482 0l0 28.094482l-28.094482 0z" fill-rule="evenodd"/><path fill="#000000" fill-opacity="0.0" d="m413.95276 203.23622l28.094482 0l0 28.094482l-28.094482 0z" fill-rule="evenodd"/><path stroke="#000000" stroke-width="1.0" stroke-linejoin="round" stroke-linecap="butt" d="m413.95276 203.23622l28.094482 0l0 28.094482l-28.094482 0z" fill-rule="evenodd"/><path fill="#000000" fill-opacity="0.0" d="m445.95276 203.23622l28.094482 0l0 28.094482l-28.094482 0z" fill-rule="evenodd"/><path stroke="#000000" stroke-width="1.0" stroke-linejoin="round" stroke-linecap="butt" d="m445.95276 203.23622l28.094482 0l0 28.094482l-28.094482 0z" fill-rule="evenodd"/><path fill="#000000" fill-opacity="0.0" d="m485.95276 163.23622l28.094482 0l0 28.094482l-28.094482 0z" fill-rule="evenodd"/><path stroke="#000000" stroke-width="1.0" stroke-linejoin="round" stroke-linecap="butt" d="m485.95276 163.23622l28.094482 0l0 28.094482l-28.094482 0z" fill-rule="evenodd"/><path fill="#000000" fill-opacity="0.0" d="m517.95276 163.23622l28.094482 0l0 28.094482l-28.094482 0z" fill-rule="evenodd"/><path stroke="#000000" stroke-width="1.0" stroke-linejoin="round" stroke-linecap="butt" d="m517.95276 163.23622l28.094482 0l0 28.094482l-28.094482 0z" fill-rule="evenodd"/><path fill="#000000" fill-opacity="0.0" d="m549.95276 163.23622l28.094482 0l0 28.094482l-28.094482 0z" fill-rule="evenodd"/><path stroke="#000000" stroke-width="1.0" stroke-linejoin="round" stroke-linecap="butt" d="m549.95276 163.23622l28.094482 0l0 28.094482l-28.094482 0z" fill-rule="evenodd"/><path fill="#000000" fill-opacity="0.0" d="m581.95276 163.23622l28.094482 0l0 28.094482l-28.094482 0z" fill-rule="evenodd"/><path stroke="#000000" stroke-width="1.0" stroke-linejoin="round" stroke-linecap="butt" d="m581.95276 163.23622l28.094482 0l0 28.094482l-28.094482 0z" fill-rule="evenodd"/><path fill="#000000" fill-opacity="0.0" d="m613.95276 163.23622l28.094482 0l0 28.094482l-28.094482 0z" fill-rule="evenodd"/><path stroke="#000000" stroke-width="1.0" stroke-linejoin="round" stroke-linecap="butt" d="m613.95276 163.23622l28.094482 0l0 28.094482l-28.094482 0z" fill-rule="evenodd"/><path fill="#000000" fill-opacity="0.0" d="m645.95276 163.23622l28.094482 0l0 28.094482l-28.094482 0z" fill-rule="evenodd"/><path stroke="#000000" stroke-width="1.0" stroke-linejoin="round" stroke-linecap="butt" d="m645.95276 163.23622l28.094482 0l0 28.094482l-28.094482 0z" fill-rule="evenodd"/><path fill="#000000" fill-opacity="0.0" d="m677.95276 163.23622l28.094482 0l0 28.094482l-28.094482 0z" fill-rule="evenodd"/><path stroke="#000000" stroke-width="1.0" stroke-linejoin="round" stroke-linecap="butt" d="m677.95276 163.23622l28.094482 0l0 28.094482l-28.094482 0z" fill-rule="evenodd"/><path fill="#000000" fill-opacity="0.0" d="m709.95276 163.23622l28.094482 0l0 28.094482l-28.094482 0z" fill-rule="evenodd"/><path stroke="#000000" stroke-width="1.0" stroke-linejoin="round" stroke-linecap="butt" d="m709.95276 163.23622l28.094482 0l0 28.094482l-28.094482 0z" fill-rule="evenodd"/><path fill="#000000" fill-opacity="0.0" d="m741.95276 163.23622l28.094482 0l0 28.094482l-28.094482 0z" fill-rule="evenodd"/><path stroke="#000000" stroke-width="1.0" stroke-linejoin="round" stroke-linecap="butt" d="m741.95276 163.23622l28.094482 0l0 28.094482l-28.094482 0z" fill-rule="evenodd"/><path fill="#000000" fill-opacity="0.0" d="m773.95276 163.23622l28.094482 0l0 28.094482l-28.094482 0z" fill-rule="evenodd"/><path stroke="#000000" stroke-width="1.0" stroke-linejoin="round" stroke-linecap="butt" d="m773.95276 163.23622l28.094482 0l0 28.094482l-28.094482 0z" fill-rule="evenodd"/><path fill="#000000" fill-opacity="0.0" d="m485.95276 203.23622l28.094482 0l0 28.094482l-28.094482 0z" fill-rule="evenodd"/><path stroke="#000000" stroke-width="1.0" stroke-linejoin="round" stroke-linecap="butt" d="m485.95276 203.23622l28.094482 0l0 28.094482l-28.094482 0z" fill-rule="evenodd"/><path fill="#000000" fill-opacity="0.0" d="m517.95276 203.23622l28.094482 0l0 28.094482l-28.094482 0z" fill-rule="evenodd"/><path stroke="#000000" stroke-width="1.0" stroke-linejoin="round" stroke-linecap="butt" d="m517.95276 203.23622l28.094482 0l0 28.094482l-28.094482 0z" fill-rule="evenodd"/><path fill="#000000" fill-opacity="0.0" d="m549.95276 203.23622l28.094482 0l0 28.094482l-28.094482 0z" fill-rule="evenodd"/><path stroke="#000000" stroke-width="1.0" stroke-linejoin="round" stroke-linecap="butt" d="m549.95276 203.23622l28.094482 0l0 28.094482l-28.094482 0z" fill-rule="evenodd"/><path fill="#000000" fill-opacity="0.0" d="m581.95276 203.23622l28.094482 0l0 28.094482l-28.094482 0z" fill-rule="evenodd"/><path stroke="#000000" stroke-width="1.0" stroke-linejoin="round" stroke-linecap="butt" d="m581.95276 203.23622l28.094482 0l0 28.094482l-28.094482 0z" fill-rule="evenodd"/><path fill="#000000" fill-opacity="0.0" d="m613.95276 203.23622l28.094482 0l0 28.094482l-28.094482 0z" fill-rule="evenodd"/><path stroke="#000000" stroke-width="1.0" stroke-linejoin="round" stroke-linecap="butt" d="m613.95276 203.23622l28.094482 0l0 28.094482l-28.094482 0z" fill-rule="evenodd"/><path fill="#000000" fill-opacity="0.0" d="m645.95276 203.23622l28.094482 0l0 28.094482l-28.094482 0z" fill-rule="evenodd"/><path stroke="#000000" stroke-width="1.0" stroke-linejoin="round" stroke-linecap="butt" d="m645.95276 203.23622l28.094482 0l0 28.094482l-28.094482 0z" fill-rule="evenodd"/><path fill="#000000" fill-opacity="0.0" d="m677.95276 203.23622l28.094482 0l0 28.094482l-28.094482 0z" fill-rule="evenodd"/><path stroke="#000000" stroke-width="1.0" stroke-linejoin="round" stroke-linecap="butt" d="m677.95276 203.23622l28.094482 0l0 28.094482l-28.094482 0z" fill-rule="evenodd"/><path fill="#000000" fill-opacity="0.0" d="m709.95276 203.23622l28.094482 0l0 28.094482l-28.094482 0z" fill-rule="evenodd"/><path stroke="#000000" stroke-width="1.0" stroke-linejoin="round" stroke-linecap="butt" d="m709.95276 203.23622l28.094482 0l0 28.094482l-28.094482 0z" fill-rule="evenodd"/><path fill="#000000" d="m724.0 223.35284q-2.21875 0 -3.71875 -1.484375q-1.484375 -1.5 -1.484375 -3.71875q0 -2.21875 1.46875 -3.6875q1.46875 -1.46875 3.734375 -1.46875q2.265625 0 3.734375 1.46875q1.46875 1.46875 1.46875 3.734375q0 2.21875 -1.46875 3.6875q-1.46875 1.46875 -3.734375 1.46875z" fill-rule="nonzero"/><path fill="#000000" fill-opacity="0.0" d="m741.95276 203.23622l28.094482 0l0 28.094482l-28.094482 0z" fill-rule="evenodd"/><path stroke="#000000" stroke-width="1.0" stroke-linejoin="round" stroke-linecap="butt" d="m741.95276 203.23622l28.094482 0l0 28.094482l-28.094482 0z" fill-rule="evenodd"/><path fill="#000000" fill-opacity="0.0" d="m773.95276 203.23622l28.094482 0l0 28.094482l-28.094482 0z" fill-rule="evenodd"/><path stroke="#000000" stroke-width="1.0" stroke-linejoin="round" stroke-linecap="butt" d="m773.95276 203.23622l28.094482 0l0 28.094482l-28.094482 0z" fill-rule="evenodd"/><path fill="#000000" fill-opacity="0.0" d="m157.95276 243.23622l28.094482 0l0 28.094498l-28.094482 0z" fill-rule="evenodd"/><path stroke="#000000" stroke-width="1.0" stroke-linejoin="round" stroke-linecap="butt" d="m157.95276 243.23622l28.094482 0l0 28.094498l-28.094482 0z" fill-rule="evenodd"/><path fill="#000000" fill-opacity="0.0" d="m189.95276 243.23622l28.094482 0l0 28.094498l-28.094482 0z" fill-rule="evenodd"/><path stroke="#000000" stroke-width="1.0" stroke-linejoin="round" stroke-linecap="butt" d="m189.95276 243.23622l28.094482 0l0 28.094498l-28.094482 0z" fill-rule="evenodd"/><path fill="#000000" fill-opacity="0.0" d="m221.95276 243.23622l28.094482 0l0 28.094498l-28.094482 0z" fill-rule="evenodd"/><path stroke="#000000" stroke-width="1.0" stroke-linejoin="round" stroke-linecap="butt" d="m221.95276 243.23622l28.094482 0l0 28.094498l-28.094482 0z" fill-rule="evenodd"/><path fill="#000000" fill-opacity="0.0" d="m253.95276 243.23622l28.094482 0l0 28.094498l-28.094482 0z" fill-rule="evenodd"/><path stroke="#000000" stroke-width="1.0" stroke-linejoin="round" stroke-linecap="butt" d="m253.95276 243.23622l28.094482 0l0 28.094498l-28.094482 0z" fill-rule="evenodd"/><path fill="#000000" fill-opacity="0.0" d="m285.95276 243.23622l28.094482 0l0 28.094498l-28.094482 0z" fill-rule="evenodd"/><path stroke="#000000" stroke-width="1.0" stroke-linejoin="round" stroke-linecap="butt" d="m285.95276 243.23622l28.094482 0l0 28.094498l-28.094482 0z" fill-rule="evenodd"/><path fill="#000000" fill-opacity="0.0" d="m317.95276 243.23622l28.094482 0l0 28.094498l-28.094482 0z" fill-rule="evenodd"/><path stroke="#000000" stroke-width="1.0" stroke-linejoin="round" stroke-linecap="butt" d="m317.95276 243.23622l28.094482 0l0 28.094498l-28.094482 0z" fill-rule="evenodd"/><path fill="#000000" fill-opacity="0.0" d="m349.95276 243.23622l28.094482 0l0 28.094498l-28.094482 0z" fill-rule="evenodd"/><path stroke="#000000" stroke-width="1.0" stroke-linejoin="round" stroke-linecap="butt" d="m349.95276 243.23622l28.094482 0l0 28.094498l-28.094482 0z" fill-rule="evenodd"/><path fill="#000000" fill-opacity="0.0" d="m381.95276 243.23622l28.094482 0l0 28.094498l-28.094482 0z" fill-rule="evenodd"/><path stroke="#000000" stroke-width="1.0" stroke-linejoin="round" stroke-linecap="butt" d="m381.95276 243.23622l28.094482 0l0 28.094498l-28.094482 0z" fill-rule="evenodd"/><path fill="#000000" fill-opacity="0.0" d="m413.95276 243.23622l28.094482 0l0 28.094498l-28.094482 0z" fill-rule="evenodd"/><path stroke="#000000" stroke-width="1.0" stroke-linejoin="round" stroke-linecap="butt" d="m413.95276 243.23622l28.094482 0l0 28.094498l-28.094482 0z" fill-rule="evenodd"/><path fill="#000000" fill-opacity="0.0" d="m445.95276 243.23622l28.094482 0l0 28.094498l-28.094482 0z" fill-rule="evenodd"/><path stroke="#000000" stroke-width="1.0" stroke-linejoin="round" stroke-linecap="butt" d="m445.95276 243.23622l28.094482 0l0 28.094498l-28.094482 0z" fill-rule="evenodd"/><path fill="#d9ead3" d="m485.95276 243.23622l28.094482 0l0 28.094498l-28.094482 0z" fill-rule="evenodd"/><path stroke="#000000" stroke-width="1.0" stroke-linejoin="round" stroke-linecap="butt" d="m485.95276 243.23622l28.094482 0l0 28.094498l-28.094482 0z" fill-rule="evenodd"/><path fill="#000000" d="m500.00003 263.35284q-2.21875 0 -3.71875 -1.484375q-1.484375 -1.5 -1.484375 -3.71875q0 -2.21875 1.46875 -3.6875q1.46875 -1.46875 3.734375 -1.46875q2.265625 0 3.734375 1.46875q1.46875 1.46875 1.46875 3.734375q0 2.21875 -1.46875 3.6875q-1.46875 1.46875 -3.734375 1.46875z" fill-rule="nonzero"/><path fill="#000000" fill-opacity="0.0" d="m517.95276 243.23622l28.094482 0l0 28.094498l-28.094482 0z" fill-rule="evenodd"/><path stroke="#000000" stroke-width="1.0" stroke-linejoin="round" stroke-linecap="butt" d="m517.95276 243.23622l28.094482 0l0 28.094498l-28.094482 0z" fill-rule="evenodd"/><path fill="#000000" fill-opacity="0.0" d="m549.95276 243.23622l28.094482 0l0 28.094498l-28.094482 0z" fill-rule="evenodd"/><path stroke="#000000" stroke-width="1.0" stroke-linejoin="round" stroke-linecap="butt" d="m549.95276 243.23622l28.094482 0l0 28.094498l-28.094482 0z" fill-rule="evenodd"/><path fill="#000000" fill-opacity="0.0" d="m581.95276 243.23622l28.094482 0l0 28.094498l-28.094482 0z" fill-rule="evenodd"/><path stroke="#000000" stroke-width="1.0" stroke-linejoin="round" stroke-linecap="butt" d="m581.95276 243.23622l28.094482 0l0 28.094498l-28.094482 0z" fill-rule="evenodd"/><path fill="#000000" fill-opacity="0.0" d="m613.95276 243.23622l28.094482 0l0 28.094498l-28.094482 0z" fill-rule="evenodd"/><path stroke="#000000" stroke-width="1.0" stroke-linejoin="round" stroke-linecap="butt" d="m613.95276 243.23622l28.094482 0l0 28.094498l-28.094482 0z" fill-rule="evenodd"/><path fill="#000000" fill-opacity="0.0" d="m645.95276 243.23622l28.094482 0l0 28.094498l-28.094482 0z" fill-rule="evenodd"/><path stroke="#000000" stroke-width="1.0" stroke-linejoin="round" stroke-linecap="butt" d="m645.95276 243.23622l28.094482 0l0 28.094498l-28.094482 0z" fill-rule="evenodd"/><path fill="#000000" fill-opacity="0.0" d="m677.95276 243.23622l28.094482 0l0 28.094498l-28.094482 0z" fill-rule="evenodd"/><path stroke="#000000" stroke-width="1.0" stroke-linejoin="round" stroke-linecap="butt" d="m677.95276 243.23622l28.094482 0l0 28.094498l-28.094482 0z" fill-rule="evenodd"/><path fill="#000000" fill-opacity="0.0" d="m709.95276 243.23622l28.094482 0l0 28.094498l-28.094482 0z" fill-rule="evenodd"/><path stroke="#000000" stroke-width="1.0" stroke-linejoin="round" stroke-linecap="butt" d="m709.95276 243.23622l28.094482 0l0 28.094498l-28.094482 0z" fill-rule="evenodd"/><path fill="#000000" fill-opacity="0.0" d="m741.95276 243.23622l28.094482 0l0 28.094498l-28.094482 0z" fill-rule="evenodd"/><path stroke="#000000" stroke-width="1.0" stroke-linejoin="round" stroke-linecap="butt" d="m741.95276 243.23622l28.094482 0l0 28.094498l-28.094482 0z" fill-rule="evenodd"/><path fill="#000000" fill-opacity="0.0" d="m773.95276 243.23622l28.094482 0l0 28.094498l-28.094482 0z" fill-rule="evenodd"/><path stroke="#000000" stroke-width="1.0" stroke-linejoin="round" stroke-linecap="butt" d="m773.95276 243.23622l28.094482 0l0 28.094498l-28.094482 0z" fill-rule="evenodd"/><path fill="#000000" fill-opacity="0.0" d="m458.64566 387.04987l55.40158 0l0 58.173218l-55.40158 0z" fill-rule="evenodd"/><path fill="#000000" d="m484.0352 425.73462q0.171875 0 0.390625 -0.125q0.21875 -0.125 0.703125 -0.515625q0.484375 -0.40625 1.4375 -1.25l0.390625 0.03125l0.40625 0.765625q-1.171875 1.15625 -2.0625 1.90625q-0.875 0.75 -1.46875 1.125q-0.59375 0.375 -0.9375 0.375q-1.0 0 -1.0 -0.9375q0 -0.578125 0.234375 -1.5625q0.25 -1.0 0.609375 -2.15625q0.375 -1.171875 0.734375 -2.375q0.375 -1.203125 0.609375 -2.21875q0.25 -1.03125 0.25 -1.703125q0 -0.578125 -0.3125 -0.9375q-0.296875 -0.375 -0.78125 -0.375q-0.671875 0 -1.65625 1.109375q-0.96875 1.109375 -2.078125 3.078125q-1.09375 1.953125 -2.21875 4.546875l-0.34375 2.6875q0 0.09375 -0.40625 0.28125q-0.390625 0.171875 -0.859375 0.3125q-0.46875 0.140625 -0.71875 0.140625l-0.234375 -0.28125q0 0 0.15625 -1.046875q0.171875 -1.0625 0.453125 -2.8125q0.296875 -1.765625 0.609375 -3.90625q0.328125 -2.15625 0.640625 -4.3125q0.328125 -2.15625 0.609375 -4.046875q0.296875 -1.890625 0.453125 -3.140625q0.15625 -1.25 0.15625 -1.53125q0 -0.640625 -0.3125 -0.9375q-0.296875 -0.3125 -1.03125 -0.3125l-1.3125 0l0.1875 -1.21875q0.75 0 1.625 -0.03125q0.875 -0.03125 1.6875 -0.0625q0.828125 -0.03125 1.328125 -0.0625q0.515625 -0.03125 0.515625 -0.03125l0.296875 0.375q0 0 -0.234375 0.953125q-0.21875 0.9375 -0.578125 2.59375q-0.34375 1.640625 -0.78125 3.78125q-0.421875 2.125 -0.859375 4.515625q-0.4375 2.375 -0.78125 4.765625l0.15625 0.09375q1.65625 -3.21875 3.328125 -5.40625q1.6875 -2.203125 3.171875 -3.0625q1.015625 0 1.765625 0.90625q0.75 0.90625 0.75 2.1875q0 0.84375 -0.34375 2.078125q-0.328125 1.21875 -0.828125 2.59375q-0.484375 1.375 -0.9375 2.6875q-0.4375 1.3125 -0.671875 2.34375l0.09375 0.125zm12.226898 -11.0q-0.25 1.5625 -0.5 3.203125q-0.234375 1.625 -0.4375 3.078125q-0.203125 1.453125 -0.34375 2.46875q-0.125 1.0 -0.125 1.328125q0 0.796875 0.296875 1.125q0.3125 0.3125 1.015625 0.3125q0.546875 0 1.09375 -0.046875q0.546875 -0.046875 0.546875 -0.046875l0.03125 0.125l-0.453125 1.46875q0 0 -0.421875 -0.015625q-0.40625 -0.015625 -1.0625 -0.03125q-0.65625 -0.015625 -1.34375 -0.03125q-0.6875 -0.015625 -1.265625 -0.015625q-0.609375 0 -1.296875 0.0625q-0.6875 0.0625 -1.296875 0.125q-0.609375 0.0625 -1.0 0.125q-0.375 0.078125 -0.375 0.078125l0.34375 -1.484375q1.15625 -0.09375 1.78125 -0.40625q0.625 -0.328125 0.9375 -1.078125q0.328125 -0.75 0.484375 -2.15625l0.90625 -7.296875q0.15625 -1.21875 -0.25 -1.515625q-0.390625 -0.3125 -1.171875 -0.3125q-0.46875 0 -1.0625 0.109375q-0.59375 0.09375 -0.59375 0.09375l-0.0625 -0.109375l0.28125 -1.34375q0.03125 0 0.5625 -0.0625q0.53125 -0.0625 1.3125 -0.171875q0.78125 -0.109375 1.578125 -0.234375q1.578125 -0.265625 2.234375 -0.390625q0.65625 -0.125 0.8125 -0.15625q0.15625 -0.03125 0.1875 -0.03125l0.125 0.546875q-0.671875 0.5 -0.953125 1.03125q-0.28125 0.53125 -0.515625 1.65625z" fill-rule="nonzero"/><path fill="#000000" fill-opacity="0.0" d="m458.64566 445.22308l55.40158 0l0 58.17325l-55.40158 0z" fill-rule="evenodd"/><path fill="#000000" d="m482.17917 483.90784q0.171875 0 0.390625 -0.125q0.21875 -0.125 0.703125 -0.515625q0.484375 -0.40625 1.4375 -1.25l0.390625 0.03125l0.40625 0.765625q-1.171875 1.15625 -2.0625 1.90625q-0.875 0.75 -1.46875 1.125q-0.59375 0.375 -0.9375 0.375q-1.0 0 -1.0 -0.9375q0 -0.578125 0.234375 -1.5625q0.25 -1.0 0.609375 -2.15625q0.375 -1.171875 0.734375 -2.375q0.375 -1.203125 0.609375 -2.21875q0.25 -1.03125 0.25 -1.703125q0 -0.578125 -0.3125 -0.9375q-0.296875 -0.375 -0.78125 -0.375q-0.671875 0 -1.65625 1.109375q-0.96875 1.109375 -2.078125 3.078125q-1.09375 1.953125 -2.21875 4.546875l-0.34375 2.6875q0 0.09375 -0.40625 0.28125q-0.390625 0.171875 -0.859375 0.3125q-0.46875 0.140625 -0.71875 0.140625l-0.234375 -0.28125q0 0 0.15625 -1.046875q0.171875 -1.0625 0.453125 -2.8125q0.296875 -1.765625 0.609375 -3.90625q0.328125 -2.15625 0.640625 -4.3125q0.328125 -2.15625 0.609375 -4.046875q0.296875 -1.890625 0.453125 -3.140625q0.15625 -1.25 0.15625 -1.53125q0 -0.640625 -0.3125 -0.9375q-0.296875 -0.3125 -1.03125 -0.3125l-1.3125 0l0.1875 -1.21875q0.75 0 1.625 -0.03125q0.875 -0.03125 1.6875 -0.0625q0.828125 -0.03125 1.328125 -0.0625q0.515625 -0.03125 0.515625 -0.03125l0.296875 0.375q0 0 -0.234375 0.953125q-0.21875 0.9375 -0.578125 2.59375q-0.34375 1.640625 -0.78125 3.78125q-0.421875 2.125 -0.859375 4.515625q-0.4375 2.375 -0.78125 4.765625l0.15625 0.09375q1.65625 -3.21875 3.328125 -5.40625q1.6875 -2.203125 3.171875 -3.0625q1.015625 0 1.765625 0.90625q0.75 0.90625 0.75 2.1875q0 0.84375 -0.34375 2.078125q-0.328125 1.21875 -0.828125 2.59375q-0.484375 1.375 -0.9375 2.6875q-0.4375 1.3125 -0.671875 2.34375l0.09375 0.125zm4.6800537 1.734375l2.75 -2.828125q2.046875 -2.109375 3.390625 -3.796875q1.34375 -1.703125 2.015625 -3.015625q0.671875 -1.3125 0.671875 -2.234375q0 -0.921875 -0.53125 -1.4375q-0.515625 -0.515625 -1.484375 -0.515625q-1.015625 0 -2.140625 0.765625q-1.125 0.765625 -1.953125 2.078125l-0.28125 0l-0.203125 -1.4375q0.671875 -1.015625 1.609375 -1.8125q0.953125 -0.8125 2.015625 -1.265625q1.078125 -0.46875 2.078125 -0.46875q1.71875 0 2.765625 0.90625q1.046875 0.90625 1.046875 2.484375q0 0.765625 -0.34375 1.640625q-0.328125 0.859375 -1.1875 2.015625q-0.84375 1.140625 -2.375 2.828125q-1.515625 1.671875 -3.875 4.109375l0.09375 0.21875l4.578125 0q1.125 0 1.796875 -0.21875q0.671875 -0.234375 1.09375 -0.84375q0.4375 -0.625 0.890625 -1.84375l1.3125 -0.171875q0 0 -0.171875 0.453125q-0.15625 0.453125 -0.40625 1.1875q-0.234375 0.734375 -0.484375 1.640625q-0.25 0.890625 -0.453125 1.75l-0.375 0.21875q0 0 -0.765625 -0.015625q-0.75 -0.015625 -1.953125 -0.0625q-1.1875 -0.046875 -2.546875 -0.078125q-1.359375 -0.03125 -2.59375 -0.046875q-1.234375 -0.015625 -2.03125 -0.015625l-1.734375 0.390625l-0.21875 -0.578125z" fill-rule="nonzero"/><path fill="#000000" fill-opacity="0.0" d="m458.64566 503.39633l55.40158 0l0 58.17325l-55.40158 0z" fill-rule="evenodd"/><path fill="#000000" d="m483.07516 542.08105q0.171875 0 0.390625 -0.125q0.21875 -0.125 0.703125 -0.515625q0.484375 -0.40625 1.4375 -1.25l0.390625 0.03125l0.40625 0.765625q-1.171875 1.15625 -2.0625 1.90625q-0.875 0.75 -1.46875 1.125q-0.59375 0.375 -0.9375 0.375q-1.0 0 -1.0 -0.9375q0 -0.578125 0.234375 -1.5625q0.25 -1.0 0.609375 -2.15625q0.375 -1.171875 0.734375 -2.375q0.375 -1.203125 0.609375 -2.21875q0.25 -1.03125 0.25 -1.703125q0 -0.578125 -0.3125 -0.9375q-0.296875 -0.375 -0.78125 -0.375q-0.671875 0 -1.65625 1.109375q-0.96875 1.109375 -2.078125 3.078125q-1.09375 1.953125 -2.21875 4.546875l-0.34375 2.6875q0 0.09375 -0.40625 0.28125q-0.390625 0.171875 -0.859375 0.3125q-0.46875 0.140625 -0.71875 0.140625l-0.234375 -0.28125q0 0 0.15625 -1.046875q0.171875 -1.0625 0.453125 -2.8125q0.296875 -1.765625 0.609375 -3.90625q0.328125 -2.15625 0.640625 -4.3125q0.328125 -2.15625 0.609375 -4.046875q0.296875 -1.890625 0.453125 -3.140625q0.15625 -1.25 0.15625 -1.53125q0 -0.640625 -0.3125 -0.9375q-0.296875 -0.3125 -1.03125 -0.3125l-1.3125 0l0.1875 -1.21875q0.75 0 1.625 -0.03125q0.875 -0.03125 1.6875 -0.0625q0.828125 -0.03125 1.328125 -0.0625q0.515625 -0.03125 0.515625 -0.03125l0.296875 0.375q0 0 -0.234375 0.953125q-0.21875 0.9375 -0.578125 2.59375q-0.34375 1.640625 -0.78125 3.78125q-0.421875 2.125 -0.859375 4.515625q-0.4375 2.375 -0.78125 4.765625l0.15625 0.09375q1.65625 -3.21875 3.328125 -5.40625q1.6875 -2.203125 3.171875 -3.0625q1.015625 0 1.765625 0.90625q0.75 0.90625 0.75 2.1875q0 0.84375 -0.34375 2.078125q-0.328125 1.21875 -0.828125 2.59375q-0.484375 1.375 -0.9375 2.6875q-0.4375 1.3125 -0.671875 2.34375l0.09375 0.125zm4.5238037 2.75q1.25 0.296875 2.421875 0.296875q1.640625 0 2.984375 -0.609375q1.34375 -0.609375 2.140625 -1.65625q0.796875 -1.0625 0.796875 -2.34375q0 -1.4375 -1.25 -2.140625q-1.25 -0.71875 -3.796875 -0.75l-0.171875 -0.15625l0 -1.109375l2.046875 -0.515625q1.390625 -0.640625 2.3125 -1.765625q0.921875 -1.125 0.921875 -2.234375q0 -0.90625 -0.59375 -1.4375q-0.578125 -0.546875 -1.515625 -0.546875q-0.859375 0 -1.875 0.453125q-1.0 0.4375 -1.796875 1.171875l-0.328125 0l-0.15625 -1.34375q0.03125 0 0.546875 -0.34375q0.515625 -0.359375 1.328125 -0.796875q0.8125 -0.453125 1.734375 -0.796875q0.9375 -0.359375 1.796875 -0.359375q1.671875 0 2.640625 0.859375q0.96875 0.859375 0.96875 2.3125q0 1.40625 -1.09375 2.734375q-1.078125 1.328125 -2.859375 2.21875l-0.046875 0.15625q1.859375 0.453125 2.78125 1.375q0.9375 0.90625 0.9375 2.21875q0 1.3125 -0.875 2.65625q-0.859375 1.34375 -2.265625 2.46875q-1.40625 1.140625 -3.046875 1.828125q-1.625 0.6875 -3.1875 0.6875q-1.0625 0 -1.4375 -0.546875q-0.390625 -0.546875 -0.265625 -1.78125l0.203125 -0.203125z" fill-rule="nonzero"/><path fill="#000000" fill-opacity="0.0" d="m458.64566 560.94226l55.40158 0l0 58.173218l-55.40158 0z" fill-rule="evenodd"/><path fill="#000000" d="m482.57916 599.627q0.171875 0 0.390625 -0.125q0.21875 -0.125 0.703125 -0.515625q0.484375 -0.40625 1.4375 -1.25l0.390625 0.03125l0.40625 0.765625q-1.171875 1.15625 -2.0625 1.90625q-0.875 0.75 -1.46875 1.125q-0.59375 0.375 -0.9375 0.375q-1.0 0 -1.0 -0.9375q0 -0.578125 0.234375 -1.5625q0.25 -1.0 0.609375 -2.15625q0.375 -1.171875 0.734375 -2.375q0.375 -1.203125 0.609375 -2.21875q0.25 -1.03125 0.25 -1.703125q0 -0.578125 -0.3125 -0.9375q-0.296875 -0.375 -0.78125 -0.375q-0.671875 0 -1.65625 1.109375q-0.96875 1.109375 -2.078125 3.078125q-1.09375 1.953125 -2.21875 4.546875l-0.34375 2.6875q0 0.09375 -0.40625 0.28125q-0.390625 0.171875 -0.859375 0.3125q-0.46875 0.140625 -0.71875 0.140625l-0.234375 -0.28125q0 0 0.15625 -1.046875q0.171875 -1.0625 0.453125 -2.8125q0.296875 -1.765625 0.609375 -3.90625q0.328125 -2.15625 0.640625 -4.3125q0.328125 -2.15625 0.609375 -4.046875q0.296875 -1.890625 0.453125 -3.140625q0.15625 -1.25 0.15625 -1.53125q0 -0.640625 -0.3125 -0.9375q-0.296875 -0.3125 -1.03125 -0.3125l-1.3125 0l0.1875 -1.21875q0.75 0 1.625 -0.03125q0.875 -0.03125 1.6875 -0.0625q0.828125 -0.03125 1.328125 -0.0625q0.515625 -0.03125 0.515625 -0.03125l0.296875 0.375q0 0 -0.234375 0.953125q-0.21875 0.9375 -0.578125 2.59375q-0.34375 1.640625 -0.78125 3.78125q-0.421875 2.125 -0.859375 4.515625q-0.4375 2.375 -0.78125 4.765625l0.15625 0.09375q1.65625 -3.21875 3.328125 -5.40625q1.6875 -2.203125 3.171875 -3.0625q1.015625 0 1.765625 0.90625q0.75 0.90625 0.75 2.1875q0 0.84375 -0.34375 2.078125q-0.328125 1.21875 -0.828125 2.59375q-0.484375 1.375 -0.9375 2.6875q-0.4375 1.3125 -0.671875 2.34375l0.09375 0.125zm4.3206787 -0.921875q0.078125 -0.296875 0.15625 -0.59375q0.078125 -0.3125 0.109375 -0.59375l9.953125 -12.09375q0.03125 0 0.0625 -0.015625q0.03125 -0.015625 0.0625 -0.015625l1.015625 0.3125l-1.375 11.265625l2.859375 0l0.15625 0.265625l-0.484375 1.75q0 0 -0.765625 -0.03125q-0.765625 -0.03125 -1.984375 -0.0625q-0.125 1.28125 -0.234375 2.53125q-0.109375 1.25 -0.171875 2.0625q-0.046875 0.8125 -0.046875 0.8125l-0.1875 0.21875l-2.296875 0.390625l-0.171875 -0.28125q0 0 0.09375 -0.546875q0.109375 -0.546875 0.234375 -1.4375q0.125 -0.875 0.28125 -1.875q0.171875 -1.015625 0.296875 -1.9375q-1.765625 -0.0625 -3.765625 -0.09375q-2.0 -0.03125 -3.796875 -0.03125zm2.625 -1.734375l5.15625 0l0.890625 -7.171875l-0.28125 0l-5.765625 7.171875z" fill-rule="nonzero"/><path fill="#000000" fill-opacity="0.0" d="m598.01575 395.1286l108.031494 0l0 42.015747l-108.031494 0z" fill-rule="evenodd"/><path fill="#000000" d="m650.0378 423.1515l0 1.625l-9.53125 0l0 -1.625l4.0625 0l0 -12.703125l-3.765625 2.28125l-0.890625 -1.421875l4.921875 -3.0625l1.765625 0l0 14.90625l3.4375 0zm13.399963 -13.28125l-6.53125 0l0 5.203125q0.6875 -0.40625 1.375 -0.5625q0.6875 -0.15625 1.453125 -0.15625q2.0625 0 3.296875 1.375q1.234375 1.359375 1.234375 3.8125q0 1.640625 -0.6875 2.890625q-0.671875 1.234375 -1.953125 1.921875q-1.265625 0.6875 -2.953125 0.6875q-2.75 0 -4.796875 -1.96875l1.25 -1.21875q1.515625 1.53125 3.546875 1.53125q1.65625 0 2.5625 -1.0q0.921875 -1.015625 0.921875 -2.90625q0 -1.875 -0.8125 -2.703125q-0.8125 -0.828125 -2.1875 -0.828125q-0.640625 0 -1.171875 0.125q-0.53125 0.109375 -1.390625 0.421875l-1.640625 0l0 -8.25l8.765625 0l-0.28125 1.625z" fill-rule="nonzero"/><path fill="#000000" fill-opacity="0.0" d="m598.01575 453.30185l108.031494 0l0 42.015747l-108.031494 0z" fill-rule="evenodd"/><path fill="#000000" d="m649.0378 468.04346l-6.53125 0l0 5.203125q0.6875 -0.40625 1.375 -0.5625q0.6875 -0.15625 1.453125 -0.15625q2.0625 0 3.296875 1.375q1.234375 1.359375 1.234375 3.8125q0 1.640625 -0.6875 2.890625q-0.671875 1.234375 -1.953125 1.921875q-1.265625 0.6875 -2.953125 0.6875q-2.75 0 -4.796875 -1.96875l1.25 -1.21875q1.515625 1.53125 3.546875 1.53125q1.65625 0 2.5625 -1.0q0.921875 -1.015625 0.921875 -2.90625q0 -1.875 -0.8125 -2.703125q-0.8125 -0.828125 -2.1875 -0.828125q-0.640625 0 -1.171875 0.125q-0.53125 0.109375 -1.390625 0.421875l-1.640625 0l0 -8.25l8.765625 0l-0.28125 1.625zm10.196838 -1.890625q2.640625 0 4.015625 2.203125q1.375 2.1875 1.375 6.3125q0 4.15625 -1.375 6.359375q-1.375 2.1875 -4.015625 2.1875q-2.640625 0 -4.03125 -2.1875q-1.375 -2.203125 -1.375 -6.359375q0 -4.125 1.375 -6.3125q1.390625 -2.203125 4.03125 -2.203125zm0 1.625q-3.296875 0 -3.296875 6.890625q0 6.90625 3.296875 6.90625q3.28125 0 3.28125 -6.90625q0 -6.890625 -3.28125 -6.890625zm0 5.328125q0.671875 0 1.125 0.46875q0.453125 0.453125 0.453125 1.09375q0 0.671875 -0.453125 1.125q-0.453125 0.453125 -1.125 0.453125q-0.671875 0 -1.125 -0.453125q-0.4375 -0.453125 -0.4375 -1.125q0 -0.640625 0.4375 -1.09375q0.453125 -0.46875 1.125 -0.46875z" fill-rule="nonzero"/><path fill="#000000" fill-opacity="0.0" d="m514.04724 416.13647l83.968506 0" fill-rule="evenodd"/><path stroke="#000000" stroke-width="1.0" stroke-linejoin="round" stroke-linecap="butt" d="m514.04724 416.13647l77.968506 0" fill-rule="evenodd"/><path fill="#000000" stroke="#000000" stroke-width="1.0" stroke-linecap="butt" d="m592.01575 417.7882l4.538086 -1.6517334l-4.538086 -1.6517334z" fill-rule="evenodd"/><path fill="#000000" fill-opacity="0.0" d="m514.04724 474.30972l83.968506 0" fill-rule="evenodd"/><path stroke="#000000" stroke-width="1.0" stroke-linejoin="round" stroke-linecap="butt" d="m514.04724 474.30972l77.968506 0" fill-rule="evenodd"/><path fill="#000000" stroke="#000000" stroke-width="1.0" stroke-linecap="butt" d="m592.01575 475.96146l4.538086 -1.6517334l-4.538086 -1.6517334z" fill-rule="evenodd"/><path fill="#000000" fill-opacity="0.0" d="m598.01575 511.47507l108.031494 0l0 42.015717l-108.031494 0z" fill-rule="evenodd"/><path fill="#000000" d="m644.08466 524.32605q1.515625 0 2.65625 0.609375q1.140625 0.59375 1.734375 1.640625q0.609375 1.03125 0.609375 2.359375q0 1.53125 -0.71875 2.96875q-0.703125 1.4375 -2.265625 3.15625q-1.5625 1.71875 -4.40625 4.328125l7.765625 0l-0.234375 1.734375l-9.84375 0l0 -1.625q3.234375 -3.109375 4.8125 -4.859375q1.578125 -1.75 2.171875 -3.0q0.609375 -1.25 0.609375 -2.640625q0 -1.390625 -0.796875 -2.171875q-0.796875 -0.796875 -2.1875 -0.796875q-1.171875 0 -1.953125 0.40625q-0.78125 0.390625 -1.59375 1.34375l-1.390625 -1.078125q0.984375 -1.21875 2.1875 -1.796875q1.21875 -0.578125 2.84375 -0.578125zm14.399963 0q1.515625 0 2.65625 0.5625q1.15625 0.5625 1.78125 1.515625q0.625 0.9375 0.625 2.078125q0 1.4375 -0.9375 2.5q-0.9375 1.0625 -2.28125 1.328125q1.5625 0.125 2.65625 1.1875q1.09375 1.046875 1.09375 2.875q0 1.40625 -0.71875 2.5625q-0.71875 1.15625 -2.03125 1.8125q-1.3125 0.640625 -2.984375 0.640625q-1.46875 0 -2.828125 -0.546875q-1.34375 -0.5625 -2.234375 -1.640625l1.34375 -1.109375q0.671875 0.796875 1.640625 1.21875q0.96875 0.421875 2.03125 0.421875q1.71875 0 2.6875 -0.890625q0.984375 -0.90625 0.984375 -2.46875q0 -3.140625 -3.4375 -3.140625l-1.359375 0l0.234375 -1.609375l0.984375 0q1.296875 0 2.203125 -0.734375q0.921875 -0.734375 0.921875 -2.15625q0 -1.3125 -0.875 -2.046875q-0.875 -0.734375 -2.25 -0.734375q-1.03125 0 -1.84375 0.359375q-0.796875 0.359375 -1.65625 1.15625l-1.109375 -1.21875q2.015625 -1.921875 4.703125 -1.921875z" fill-rule="nonzero"/><path fill="#000000" fill-opacity="0.0" d="m598.01575 569.6483l108.031494 0l0 42.015747l-108.031494 0z" fill-rule="evenodd"/><path fill="#000000" d="m644.56903 582.5149q2.703125 0 4.046875 1.6875q1.359375 1.671875 1.359375 4.703125q0 3.484375 -0.90625 5.546875q-0.90625 2.0625 -2.765625 3.25q-1.859375 1.1875 -5.140625 2.09375l-0.484375 -1.53125q3.53125 -0.9375 5.328125 -2.5625q1.796875 -1.640625 1.828125 -4.5q-0.625 0.890625 -1.625 1.46875q-1.0 0.578125 -2.296875 0.578125q-1.359375 0 -2.4375 -0.640625q-1.0625 -0.65625 -1.671875 -1.84375q-0.59375 -1.1875 -0.59375 -2.796875q0 -1.734375 0.703125 -2.953125q0.71875 -1.21875 1.921875 -1.859375q1.21875 -0.640625 2.734375 -0.640625zm-0.3125 9.09375q1.15625 0 2.03125 -0.5625q0.890625 -0.578125 1.59375 -1.640625q0.046875 -2.875 -0.75 -4.0625q-0.78125 -1.1875 -2.5625 -1.1875q-1.609375 0 -2.421875 0.984375q-0.8125 0.984375 -0.8125 2.90625q0 1.8125 0.75 2.6875q0.75 0.875 2.171875 0.875zm20.181213 6.0625l0 1.625l-9.53125 0l0 -1.625l4.0625 0l0 -12.703125l-3.765625 2.28125l-0.890625 -1.421875l4.921875 -3.0625l1.765625 0l0 14.90625l3.4375 0z" fill-rule="nonzero"/><path fill="#000000" fill-opacity="0.0" d="m514.04724 532.4829l83.968506 0" fill-rule="evenodd"/><path stroke="#000000" stroke-width="1.0" stroke-linejoin="round" stroke-linecap="butt" d="m514.04724 532.4829l77.968506 0" fill-rule="evenodd"/><path fill="#000000" stroke="#000000" stroke-width="1.0" stroke-linecap="butt" d="m592.01575 534.13464l4.538086 -1.6517334l-4.538086 -1.6517334z" fill-rule="evenodd"/><path fill="#000000" fill-opacity="0.0" d="m514.04724 590.6562l83.968506 0" fill-rule="evenodd"/><path stroke="#000000" stroke-width="1.0" stroke-linejoin="round" stroke-linecap="butt" d="m514.04724 590.6562l77.968506 0" fill-rule="evenodd"/><path fill="#000000" stroke="#000000" stroke-width="1.0" stroke-linecap="butt" d="m592.01575 592.3079l4.538086 -1.6517334l-4.538086 -1.6517334z" fill-rule="evenodd"/><path fill="#000000" fill-opacity="0.0" d="m253.95276 395.1286l108.031494 0l0 42.015747l-108.031494 0z" fill-rule="evenodd"/><path fill="#000000" d="m294.9623 407.9796q1.53125 0 2.640625 0.390625q1.109375 0.390625 2.15625 1.21875l-1.171875 1.359375q-1.46875 -1.21875 -3.484375 -1.21875q-2.234375 0 -3.640625 1.625q-1.390625 1.609375 -1.390625 5.140625q0 3.5 1.359375 5.140625q1.375 1.625 3.65625 1.625q1.234375 0 2.125 -0.359375q0.890625 -0.359375 1.703125 -1.0l1.078125 1.34375q-1.84375 1.796875 -4.9375 1.796875q-2.046875 0 -3.671875 -1.0q-1.625 -1.0 -2.5625 -2.90625q-0.9375 -1.921875 -0.9375 -4.640625q0 -2.6875 0.9375 -4.609375q0.953125 -1.9375 2.5625 -2.921875q1.625 -0.984375 3.578125 -0.984375zm9.665588 12.578125l-1.3125 4.21875l-2.0625 0l5.390625 -16.53125l2.640625 0l5.375 16.53125l-2.15625 0l-1.3125 -4.21875l-6.5625 0zm6.0 -1.734375l-2.703125 -8.8125l-2.734375 8.8125l5.4375 0zm12.743713 5.953125l-2.078125 0l0 -14.734375l-5.171875 0l0 -1.796875l12.46875 0l-0.21875 1.796875l-5.0 0l0 14.734375z" fill-rule="nonzero"/><path fill="#000000" fill-opacity="0.0" d="m253.95276 453.30185l108.031494 0l0 42.015747l-108.031494 0z" fill-rule="evenodd"/><path fill="#000000" d="m294.9623 466.15283q1.53125 0 2.640625 0.390625q1.109375 0.390625 2.15625 1.21875l-1.171875 1.359375q-1.46875 -1.21875 -3.484375 -1.21875q-2.234375 0 -3.640625 1.625q-1.390625 1.609375 -1.390625 5.140625q0 3.5 1.359375 5.140625q1.375 1.625 3.65625 1.625q1.234375 0 2.125 -0.359375q0.890625 -0.359375 1.703125 -1.0l1.078125 1.34375q-1.84375 1.796875 -4.9375 1.796875q-2.046875 0 -3.671875 -1.0q-1.625 -1.0 -2.5625 -2.90625q-0.9375 -1.921875 -0.9375 -4.640625q0 -2.6875 0.9375 -4.609375q0.953125 -1.9375 2.5625 -2.921875q1.625 -0.984375 3.578125 -0.984375zm9.665588 12.578125l-1.3125 4.21875l-2.0625 0l5.390625 -16.53125l2.640625 0l5.375 16.53125l-2.15625 0l-1.3125 -4.21875l-6.5625 0zm6.0 -1.734375l-2.703125 -8.8125l-2.734375 8.8125l5.4375 0zm12.743713 5.953125l-2.078125 0l0 -14.734375l-5.171875 0l0 -1.796875l12.46875 0l-0.21875 1.796875l-5.0 0l0 14.734375z" fill-rule="nonzero"/><path fill="#000000" fill-opacity="0.0" d="m253.95276 511.47507l108.031494 0l0 42.015717l-108.031494 0z" fill-rule="evenodd"/><path fill="#000000" d="m294.9623 524.32605q1.53125 0 2.640625 0.390625q1.109375 0.390625 2.15625 1.21875l-1.171875 1.359375q-1.46875 -1.21875 -3.484375 -1.21875q-2.234375 0 -3.640625 1.625q-1.390625 1.609375 -1.390625 5.140625q0 3.5 1.359375 5.140625q1.375 1.625 3.65625 1.625q1.234375 0 2.125 -0.359375q0.890625 -0.359375 1.703125 -1.0l1.078125 1.34375q-1.84375 1.796875 -4.9375 1.796875q-2.046875 0 -3.671875 -1.0q-1.625 -1.0 -2.5625 -2.90625q-0.9375 -1.921875 -0.9375 -4.640625q0 -2.6875 0.9375 -4.609375q0.953125 -1.9375 2.5625 -2.921875q1.625 -0.984375 3.578125 -0.984375zm9.665588 12.578125l-1.3125 4.21875l-2.0625 0l5.390625 -16.53125l2.640625 0l5.375 16.53125l-2.15625 0l-1.3125 -4.21875l-6.5625 0zm6.0 -1.734375l-2.703125 -8.8125l-2.734375 8.8125l5.4375 0zm12.743713 5.953125l-2.078125 0l0 -14.734375l-5.171875 0l0 -1.796875l12.46875 0l-0.21875 1.796875l-5.0 0l0 14.734375z" fill-rule="nonzero"/><path fill="#000000" fill-opacity="0.0" d="m253.95276 569.6483l108.031494 0l0 42.015747l-108.031494 0z" fill-rule="evenodd"/><path fill="#000000" d="m294.9623 582.49927q1.53125 0 2.640625 0.390625q1.109375 0.390625 2.15625 1.21875l-1.171875 1.359375q-1.46875 -1.21875 -3.484375 -1.21875q-2.234375 0 -3.640625 1.625q-1.390625 1.609375 -1.390625 5.140625q0 3.5 1.359375 5.140625q1.375 1.625 3.65625 1.625q1.234375 0 2.125 -0.359375q0.890625 -0.359375 1.703125 -1.0l1.078125 1.34375q-1.84375 1.796875 -4.9375 1.796875q-2.046875 0 -3.671875 -1.0q-1.625 -1.0 -2.5625 -2.90625q-0.9375 -1.921875 -0.9375 -4.640625q0 -2.6875 0.9375 -4.609375q0.953125 -1.9375 2.5625 -2.921875q1.625 -0.984375 3.578125 -0.984375zm9.665588 12.578125l-1.3125 4.21875l-2.0625 0l5.390625 -16.53125l2.640625 0l5.375 16.53125l-2.15625 0l-1.3125 -4.21875l-6.5625 0zm6.0 -1.734375l-2.703125 -8.8125l-2.734375 8.8125l5.4375 0zm12.743713 5.953125l-2.078125 0l0 -14.734375l-5.171875 0l0 -1.796875l12.46875 0l-0.21875 1.796875l-5.0 0l0 14.734375z" fill-rule="nonzero"/><path fill="#000000" fill-opacity="0.0" d="m361.98425 416.13647l96.66141 0" fill-rule="evenodd"/><path stroke="#000000" stroke-width="1.0" stroke-linejoin="round" stroke-linecap="butt" d="m361.98425 416.13647l90.66141 0" fill-rule="evenodd"/><path fill="#000000" stroke="#000000" stroke-width="1.0" stroke-linecap="butt" d="m452.64566 417.7882l4.5381165 -1.6517334l-4.5381165 -1.6517334z" fill-rule="evenodd"/><path fill="#000000" fill-opacity="0.0" d="m361.98425 474.30972l96.66141 0" fill-rule="evenodd"/><path stroke="#000000" stroke-width="1.0" stroke-linejoin="round" stroke-linecap="butt" d="m361.98425 474.30972l90.66141 0" fill-rule="evenodd"/><path fill="#000000" stroke="#000000" stroke-width="1.0" stroke-linecap="butt" d="m452.64566 475.96146l4.5381165 -1.6517334l-4.5381165 -1.6517334z" fill-rule="evenodd"/><path fill="#000000" fill-opacity="0.0" d="m361.98425 532.4829l96.66141 0" fill-rule="evenodd"/><path stroke="#000000" stroke-width="1.0" stroke-linejoin="round" stroke-linecap="butt" d="m361.98425 532.4829l90.66141 0" fill-rule="evenodd"/><path fill="#000000" stroke="#000000" stroke-width="1.0" stroke-linecap="butt" d="m452.64566 534.13464l4.5381165 -1.6517334l-4.5381165 -1.6517334z" fill-rule="evenodd"/><path fill="#000000" fill-opacity="0.0" d="m361.98425 590.6562l96.66141 -0.62994385" fill-rule="evenodd"/><path stroke="#000000" stroke-width="1.0" stroke-linejoin="round" stroke-linecap="butt" d="m361.98425 590.6562l90.66153 -0.59088135" fill-rule="evenodd"/><path fill="#000000" stroke="#000000" stroke-width="1.0" stroke-linecap="butt" d="m452.65656 591.71704l4.527252 -1.6812744l-4.548767 -1.6221313z" fill-rule="evenodd"/></g></svg>