<svg version="1.1" viewBox="0.0 0.0 960.0 720.0" fill="none" stroke="none" stroke-linecap="square" stroke-miterlimit="10" xmlns:xlink="http://www.w3.org/1999/xlink" xmlns="http://www.w3.org/2000/svg"><clipPath id="p.0"><path d="m0 0l960.0 0l0 720.0l-960.0 0l0 -720.0z" clip-rule="nonzero"/></clipPath><g clip-path="url(#p.0)"><path fill="#000000" fill-opacity="0.0" d="m0 0l960.0 0l0 720.0l-960.0 0z" fill-rule="evenodd"/><path fill="#000000" fill-opacity="0.0" d="m159.08923 184.07349l58.173233 0l0 58.173233l-58.173233 0z" fill-rule="evenodd"/><path stroke="#000000" stroke-width="1.0" stroke-linejoin="round" stroke-linecap="butt" d="m159.08923 184.07349l58.173233 0l0 58.173233l-58.173233 0z" fill-rule="evenodd"/><path fill="#000000" fill-opacity="0.0" d="m225.34933 184.07349l58.173218 0l0 58.173233l-58.173218 0z" fill-rule="evenodd"/><path stroke="#000000" stroke-width="1.0" stroke-linejoin="round" stroke-linecap="butt" d="m225.34933 184.07349l58.173218 0l0 58.173233l-58.173218 0z" fill-rule="evenodd"/><path fill="#000000" fill-opacity="0.0" d="m291.6094 184.07349l58.17325 0l0 58.173233l-58.17325 0z" fill-rule="evenodd"/><path stroke="#000000" stroke-width="1.0" stroke-linejoin="round" stroke-linecap="butt" d="m291.6094 184.07349l58.17325 0l0 58.173233l-58.17325 0z" fill-rule="evenodd"/><path fill="#d9ead3" d="m357.8695 184.07349l58.173218 0l0 58.173233l-58.173218 0z" fill-rule="evenodd"/><path stroke="#6aa84f" stroke-width="1.0" stroke-linejoin="round" stroke-linecap="butt" d="m357.8695 184.07349l58.173218 0l0 58.173233l-58.173218 0z" fill-rule="evenodd"/><path fill="#6aa84f" d="m386.95615 224.36635q-4.15625 0 -6.96875 -2.796875q-2.796875 -2.8125 -2.796875 -6.96875q0 -4.15625 2.765625 -6.921875q2.765625 -2.765625 7.0 -2.765625q4.234375 0 7.0 2.765625q2.765625 2.765625 2.765625 7.0q0 4.15625 -2.765625 6.921875q-2.765625 2.765625 -7.0 2.765625z" fill-rule="nonzero"/><path fill="#000000" fill-opacity="0.0" d="m424.1296 184.07349l58.173218 0l0 58.173233l-58.173218 0z" fill-rule="evenodd"/><path stroke="#000000" stroke-width="1.0" stroke-linejoin="round" stroke-linecap="butt" d="m424.1296 184.07349l58.173218 0l0 58.173233l-58.173218 0z" fill-rule="evenodd"/><path fill="#000000" fill-opacity="0.0" d="m490.38968 184.07349l58.17325 0l0 58.173233l-58.17325 0z" fill-rule="evenodd"/><path stroke="#000000" stroke-width="1.0" stroke-linejoin="round" stroke-linecap="butt" d="m490.38968 184.07349l58.17325 0l0 58.173233l-58.17325 0z" fill-rule="evenodd"/><path fill="#000000" d="m519.4763 224.36635q-4.15625 0 -6.96875 -2.796875q-2.796875 -2.8125 -2.796875 -6.96875q0 -4.15625 2.765625 -6.921875q2.765625 -2.765625 7.0 -2.765625q4.234375 0 7.0 2.765625q2.765625 2.765625 2.765625 7.0q0 4.15625 -2.765625 6.921875q-2.765625 2.765625 -7.0 2.765625z" fill-rule="nonzero"/><path fill="#000000" fill-opacity="0.0" d="m556.6498 184.07349l58.173218 0l0 58.173233l-58.173218 0z" fill-rule="evenodd"/><path stroke="#000000" stroke-width="1.0" stroke-linejoin="round" stroke-linecap="butt" d="m556.6498 184.07349l58.173218 0l0 58.173233l-58.173218 0z" fill-rule="evenodd"/><path fill="#000000" fill-opacity="0.0" d="m622.90985 184.07349l58.173218 0l0 58.173233l-58.173218 0z" fill-rule="evenodd"/><path stroke="#000000" stroke-width="1.0" stroke-linejoin="round" stroke-linecap="butt" d="m622.90985 184.07349l58.173218 0l0 58.173233l-58.173218 0z" fill-rule="evenodd"/><path fill="#000000" fill-opacity="0.0" d="m689.17 184.07349l58.173218 0l0 58.173233l-58.173218 0z" fill-rule="evenodd"/><path stroke="#000000" stroke-width="1.0" stroke-linejoin="round" stroke-linecap="butt" d="m689.17 184.07349l58.173218 0l0 58.173233l-58.173218 0z" fill-rule="evenodd"/><path fill="#000000" fill-opacity="0.0" d="m755.43005 184.07349l58.173218 0l0 58.173233l-58.173218 0z" fill-rule="evenodd"/><path stroke="#000000" stroke-width="1.0" stroke-linejoin="round" stroke-linecap="butt" d="m755.43005 184.07349l58.173218 0l0 58.173233l-58.173218 0z" fill-rule="evenodd"/><path fill="#000000" fill-opacity="0.0" d="m458.64566 387.04987l55.40158 0l0 58.173218l-55.40158 0z" fill-rule="evenodd"/><path fill="#000000" d="m479.90717 425.73462q0.171875 0 0.390625 -0.125q0.21875 -0.125 0.703125 -0.515625q0.484375 -0.40625 1.4375 -1.25l0.390625 0.03125l0.40625 0.765625q-1.171875 1.15625 -2.0625 1.90625q-0.875 0.75 -1.46875 1.125q-0.59375 0.375 -0.9375 0.375q-1.0 0 -1.0 -0.9375q0 -0.578125 0.234375 -1.5625q0.25 -1.0 0.609375 -2.15625q0.375 -1.171875 0.734375 -2.375q0.375 -1.203125 0.609375 -2.21875q0.25 -1.03125 0.25 -1.703125q0 -0.578125 -0.3125 -0.9375q-0.296875 -0.375 -0.78125 -0.375q-0.671875 0 -1.65625 1.109375q-0.96875 1.109375 -2.078125 3.078125q-1.09375 1.953125 -2.21875 4.546875l-0.34375 2.6875q0 0.09375 -0.40625 0.28125q-0.390625 0.171875 -0.859375 0.3125q-0.46875 0.140625 -0.71875 0.140625l-0.234375 -0.28125q0 0 0.15625 -1.046875q0.171875 -1.0625 0.453125 -2.8125q0.296875 -1.765625 0.609375 -3.90625q0.328125 -2.15625 0.640625 -4.3125q0.328125 -2.15625 0.609375 -4.046875q0.296875 -1.890625 0.453125 -3.140625q0.15625 -1.25 0.15625 -1.53125q0 -0.640625 -0.3125 -0.9375q-0.296875 -0.3125 -1.03125 -0.3125l-1.3125 0l0.1875 -1.21875q0.75 0 1.625 -0.03125q0.875 -0.03125 1.6875 -0.0625q0.828125 -0.03125 1.328125 -0.0625q0.515625 -0.03125 0.515625 -0.03125l0.296875 0.375q0 0 -0.234375 0.953125q-0.21875 0.9375 -0.578125 2.59375q-0.34375 1.640625 -0.78125 3.78125q-0.421875 2.125 -0.859375 4.515625q-0.4375 2.375 -0.78125 4.765625l0.15625 0.09375q1.65625 -3.21875 3.328125 -5.40625q1.6875 -2.203125 3.171875 -3.0625q1.015625 0 1.765625 0.90625q0.75 0.90625 0.75 2.1875q0 0.84375 -0.34375 2.078125q-0.328125 1.21875 -0.828125 2.59375q-0.484375 1.375 -0.9375 2.6875q-0.4375 1.3125 -0.671875 2.34375l0.09375 0.125zm7.7269287 -8.828125q0.28125 -2.375 1.0625 -4.0625q0.78125 -1.703125 1.78125 -2.84375q1.015625 -1.15625 1.9375 -1.84375q0.9375 -0.6875 1.5625 -0.96875q0.625 -0.296875 0.625 -0.296875l0.15625 0l0.328125 0.921875l-0.0625 0.125q0 0 -0.671875 0.40625q-0.671875 0.40625 -1.625 1.375q-0.9375 0.953125 -1.78125 2.578125q-0.828125 1.625 -1.109375 4.125l-0.671875 5.53125q-0.265625 2.15625 -0.03125 3.734375q0.25 1.578125 0.765625 2.65625q0.515625 1.078125 1.0625 1.75q0.5625 0.671875 0.96875 0.953125q0.40625 0.296875 0.40625 0.296875l0 0.15625l-0.8125 0.828125l-0.125 0q0 0 -0.546875 -0.296875q-0.53125 -0.28125 -1.296875 -0.953125q-0.75 -0.671875 -1.453125 -1.8125q-0.703125 -1.125 -1.078125 -2.796875q-0.359375 -1.6875 -0.0625 -4.03125l0.671875 -5.53125zm13.207123 5.40625q-0.28125 2.328125 -1.078125 4.046875q-0.78125 1.71875 -1.796875 2.859375q-1.0 1.15625 -1.9375 1.84375q-0.921875 0.6875 -1.546875 0.96875q-0.609375 0.296875 -0.609375 0.296875l-0.140625 0l-0.3125 -0.921875l0.03125 -0.140625q0 0 0.671875 -0.40625q0.671875 -0.390625 1.609375 -1.359375q0.953125 -0.953125 1.78125 -2.578125q0.828125 -1.640625 1.15625 -4.125l0.671875 -5.546875q0.25 -2.140625 0 -3.71875q-0.234375 -1.59375 -0.75 -2.65625q-0.5 -1.078125 -1.078125 -1.75q-0.578125 -0.671875 -0.984375 -0.953125q-0.390625 -0.296875 -0.390625 -0.296875l0.03125 -0.15625l0.765625 -0.828125l0.125 0q0 0 0.546875 0.296875q0.546875 0.28125 1.296875 0.953125q0.75 0.671875 1.46875 1.8125q0.71875 1.125 1.09375 2.8125q0.375 1.671875 0.078125 4.015625l-0.703125 5.53125z" fill-rule="nonzero"/><path fill="#000000" fill-opacity="0.0" d="m598.01575 395.1286l108.031494 0l0 42.015747l-108.031494 0z" fill-rule="evenodd"/><path fill="#000000" d="m657.5034 420.76086l-2.140625 0l0 4.015625l-1.9375 0l0 -4.015625l-6.859375 0l0 -1.484375l4.84375 -11.296875l1.671875 0.71875l-4.390625 10.4375l4.75 0l0.171875 -4.671875l1.75 0l0 4.671875l2.140625 0l0 1.625z" fill-rule="nonzero"/><path fill="#000000" fill-opacity="0.0" d="m514.04724 416.13647l83.968506 0" fill-rule="evenodd"/><path stroke="#000000" stroke-width="1.0" stroke-linejoin="round" stroke-linecap="butt" d="m514.04724 416.13647l77.968506 0" fill-rule="evenodd"/><path fill="#000000" stroke="#000000" stroke-width="1.0" stroke-linecap="butt" d="m592.01575 417.7882l4.538086 -1.6517334l-4.538086 -1.6517334z" fill-rule="evenodd"/><path fill="#000000" fill-opacity="0.0" d="m253.95276 395.1286l108.031494 0l0 42.015747l-108.031494 0z" fill-rule="evenodd"/><path fill="#000000" d="m294.9623 407.9796q1.53125 0 2.640625 0.390625q1.109375 0.390625 2.15625 1.21875l-1.171875 1.359375q-1.46875 -1.21875 -3.484375 -1.21875q-2.234375 0 -3.640625 1.625q-1.390625 1.609375 -1.390625 5.140625q0 3.5 1.359375 5.140625q1.375 1.625 3.65625 1.625q1.234375 0 2.125 -0.359375q0.890625 -0.359375 1.703125 -1.0l1.078125 1.34375q-1.84375 1.796875 -4.9375 1.796875q-2.046875 0 -3.671875 -1.0q-1.625 -1.0 -2.5625 -2.90625q-0.9375 -1.921875 -0.9375 -4.640625q0 -2.6875 0.9375 -4.609375q0.953125 -1.9375 2.5625 -2.921875q1.625 -0.984375 3.578125 -0.984375zm19.071838 8.546875q0 3.859375 -1.578125 6.1875q-1.5625 2.328125 -4.484375 2.328125q-2.953125 0 -4.515625 -2.28125q-1.5625 -2.28125 -1.5625 -6.21875q0 -2.515625 0.6875 -4.453125q0.703125 -1.953125 2.0625 -3.03125q1.375 -1.078125 3.328125 -1.078125q2.921875 0 4.484375 2.3125q1.578125 2.3125 1.578125 6.234375zm-2.15625 0q0 -3.390625 -0.9375 -5.09375q-0.9375 -1.703125 -2.96875 -1.703125q-2.046875 0 -2.984375 1.71875q-0.9375 1.71875 -0.9375 5.09375q0 3.359375 0.953125 5.0625q0.953125 1.6875 2.96875 1.6875q2.03125 0 2.96875 -1.6875q0.9375 -1.703125 0.9375 -5.078125zm15.071838 8.25l-2.734375 0l-1.890625 -12.484375l-1.921875 12.484375l-2.8125 0l-2.296875 -16.53125l2.078125 0l1.75 14.25l2.0 -12.328125l2.546875 0l1.890625 12.328125l1.96875 -14.25l1.921875 0l-2.5 16.53125z" fill-rule="nonzero"/><path fill="#000000" fill-opacity="0.0" d="m361.98425 416.13647l96.66141 0" fill-rule="evenodd"/><path stroke="#000000" stroke-width="1.0" stroke-linejoin="round" stroke-linecap="butt" d="m361.98425 416.13647l90.66141 0" fill-rule="evenodd"/><path fill="#000000" stroke="#000000" stroke-width="1.0" stroke-linecap="butt" d="m452.64566 417.7882l4.5381165 -1.6517334l-4.5381165 -1.6517334z" fill-rule="evenodd"/></g></svg>